<?xml version="1.0" encoding="utf-8"?>
<!-- Generator: Adobe Illustrator 26.0.2, SVG Export Plug-In . SVG Version: 6.00 Build 0)  -->
<svg version="1.1" id="Layer_1" xmlns="http://www.w3.org/2000/svg" xmlns:xlink="http://www.w3.org/1999/xlink" x="0px" y="0px"
	 viewBox="0 0 1080 1080" style="enable-background:new 0 0 1080 1080;" xml:space="preserve">
<style type="text/css">
	.st0{fill:#F0E13D;}
</style>
<path class="st0" d="M874.4,1044.44H205.6c-93.91,0-170.04-76.13-170.04-170.04V205.6c0-93.91,76.13-170.04,170.04-170.04h668.8
	c93.91,0,170.04,76.13,170.04,170.04v668.8C1044.44,968.31,968.31,1044.44,874.4,1044.44z"/>
<g>
	<g>
		<path d="M625.52,653.79h59.17c27.72,0,50.28-22.56,50.28-50.28V384.77l-0.06-2.03c-0.26-32.52-8.81-64.68-24.65-93.01
			c-5.27-9.48-11.28-18.44-18.03-26.86c-6.72-8.39-14.17-16.26-22.24-23.47c-35.02-31.43-80.17-49.1-127.12-49.8
			c-0.91-0.03-1.83-0.03-2.74-0.03c-47.3,0-92.89,17.64-128.68,49.83c-16.08,14.46-29.66,31.34-40.38,50.16
			c-17.02,29.92-26.04,63.88-26.04,98.22v307.6c0,33.25,8.51,66.06,24.62,94.9c10.49,18.85,24,35.76,40.2,50.33
			c35.84,32.13,82.11,49.83,130.24,49.83h144.58c27.72,0,50.28-22.56,50.28-50.28v-59.23c0-12.72-4.95-24.68-13.96-33.66
			c-8.98-9.01-20.94-13.96-33.69-13.96H540.1c-20.91,0-37.94-17.02-37.94-37.93V385.65c0-20,15.05-37.02,34.28-38.79
			c10.75-0.97,21.06,2.47,29.04,9.72c7.1,6.48,11.49,15.49,12.22,25.01h0.12l0.15,2.95v221.72
			C577.98,632.47,599.3,653.79,625.52,653.79z M537.01,302.07c-43.85,1.53-79.55,39.38-79.55,84.35v308.96
			c0,45.56,37.08,82.61,82.64,82.61h117.93c10.25,0,19.67,4.71,25.83,12.96c4.18,5.6,6.39,12.25,6.39,19.29v3.27
			c0,17.76-14.46,32.22-32.22,32.22H540.1c-43.21,0-84.35-18.61-112.92-51.07c-24.15-27.42-37.46-62.68-37.46-99.28V387.1
			c0-37.49,13.64-73.63,38.35-101.76c27.83-31.69,67.59-50.31,109.12-51.04c0.91-0.03,1.86-0.03,2.8-0.03
			c43.12,0,84.23,18.61,112.77,51.07c24.18,27.48,37.49,62.7,37.49,99.2v192.33c0,17.76-14.46,32.22-32.22,32.22h-3.12
			c-17.76,0-32.22-14.46-32.22-32.22V385.09l-0.27-2.33c-0.47-22.24-9.66-42.91-25.89-58.26
			C580.36,309.25,559.22,301.27,537.01,302.07z"/>
	</g>
	<g>
		<path d="M854.57,388.66v310.64c0,58.76-37.05,111.8-92.22,132.01c-1.56,0.56-3.27,0.35-4.65-0.62c-1.35-0.91-2.12-2.42-2.12-4.04
			v-37.38c0-1.86,1-3.53,2.53-4.33c32.25-16.64,52.28-49.45,52.28-85.65V380.73c0-46.39-33.08-86.24-78.64-94.75
			c-1.5-0.27-2.77-1.15-3.5-2.42c-7.3-12.55-15.99-24.33-25.83-34.99c-1.41-1.56-1.77-3.59-0.94-5.48c0.8-1.86,2.5-2.95,4.51-2.95
			h0.09C787.95,240.16,854.57,306.78,854.57,388.66z"/>
	</g>
	<g>
		<path d="M269.61,380.73v318.56c0,46.33,33.05,86.18,78.55,94.69c1.5,0.29,2.77,1.18,3.5,2.44c7.27,12.49,15.96,24.27,25.83,34.99
			c1.41,1.53,1.77,3.59,0.94,5.48c-0.82,1.86-2.5,2.95-4.54,2.95c-81.88,0-148.47-66.59-148.47-148.47V388.63
			c0-81.88,66.62-148.47,148.47-148.47h1.56c2.03,0,3.74,1.09,4.54,2.95c0.82,1.89,0.47,3.92-0.94,5.48
			c-9.81,10.63-18.53,22.33-25.92,34.78c-0.74,1.27-2.03,2.15-3.56,2.39C303.24,293.73,269.61,333.67,269.61,380.73z"/>
	</g>
</g>
</svg>
