<svg width="22" height="23" viewBox="0 0 22 23" fill="none" xmlns="http://www.w3.org/2000/svg">
<path d="M12.0471 0.429974C11.7196 0.15237 11.3043 0 10.875 0C10.4457 0 10.0304 0.15237 9.70292 0.429974L0.640417 8.1186C0.439743 8.28873 0.278511 8.5005 0.167919 8.73921C0.0573278 8.97792 2.79022e-05 9.23785 0 9.50093V20.8629C0 21.3436 0.190959 21.8046 0.530869 22.1445C0.870779 22.4844 1.3318 22.6754 1.8125 22.6754H7.55208C7.79244 22.6754 8.02294 22.5799 8.1929 22.41C8.36285 22.24 8.45833 22.0095 8.45833 21.7691V14.2171H13.2917V21.7691C13.2917 22.2694 13.6977 22.6754 14.1979 22.6754H19.9375C20.4182 22.6754 20.8792 22.4844 21.2191 22.1445C21.559 21.8046 21.75 21.3436 21.75 20.8629V9.50093C21.75 9.23785 21.6927 8.97792 21.5821 8.73921C21.4715 8.5005 21.3103 8.28873 21.1096 8.1186L12.0471 0.429974Z" fill="#F0E13D"/>
</svg>
