<svg width="24" height="22" viewBox="0 0 24 22" fill="none" xmlns="http://www.w3.org/2000/svg">
<path d="M4.00683 2.00221C4.47319 1.87576 4.9543 1.81196 5.4375 1.8125H18.125C18.6204 1.8125 19.0989 1.87896 19.5545 2.00221C19.2532 1.40043 18.7904 0.894403 18.2178 0.540782C17.6452 0.187161 16.9855 -8.89887e-05 16.3125 3.93907e-07H7.25C6.57682 -0.000313376 5.91685 0.186831 5.34403 0.540465C4.77122 0.894098 4.30819 1.40025 4.00683 2.00221ZM0 10.875C0 9.91359 0.381919 8.99156 1.06174 8.31174C1.74156 7.63192 2.66359 7.25 3.625 7.25H19.9375C20.8989 7.25 21.8209 7.63192 22.5008 8.31174C23.1806 8.99156 23.5625 9.91359 23.5625 10.875V18.125C23.5625 19.0864 23.1806 20.0084 22.5008 20.6883C21.8209 21.3681 20.8989 21.75 19.9375 21.75H3.625C2.66359 21.75 1.74156 21.3681 1.06174 20.6883C0.381919 20.0084 0 19.0864 0 18.125V10.875ZM3.625 5.4375C3.12958 5.4375 2.65108 5.50396 2.19433 5.62721C2.49569 5.02525 2.95872 4.5191 3.53153 4.16546C4.10435 3.81183 4.76432 3.62469 5.4375 3.625H18.125C18.798 3.62491 19.4577 3.81216 20.0303 4.16578C20.6029 4.5194 21.0657 5.02543 21.367 5.62721C20.901 5.50086 20.4203 5.43707 19.9375 5.4375H3.625Z" fill="#F0E13D"/>
</svg>
