<svg width="24" height="19" viewBox="0 0 24 19" fill="none" xmlns="http://www.w3.org/2000/svg">
<path d="M7.94792 1.60417H21.8438C22.0841 1.60417 22.3146 1.69965 22.4846 1.8696C22.6545 2.03956 22.75 2.27006 22.75 2.51042C22.75 2.75077 22.6545 2.98128 22.4846 3.15123C22.3146 3.32119 22.0841 3.41667 21.8438 3.41667H7.94792C7.70756 3.41667 7.47706 3.32119 7.3071 3.15123C7.13715 2.98128 7.04167 2.75077 7.04167 2.51042C7.04167 2.27006 7.13715 2.03956 7.3071 1.8696C7.47706 1.69965 7.70756 1.60417 7.94792 1.60417ZM7.94792 8.85417H21.8438C22.0841 8.85417 22.3146 8.94965 22.4846 9.1196C22.6545 9.28956 22.75 9.52006 22.75 9.76042C22.75 10.0008 22.6545 10.2313 22.4846 10.4012C22.3146 10.5712 22.0841 10.6667 21.8438 10.6667H7.94792C7.70756 10.6667 7.47706 10.5712 7.3071 10.4012C7.13715 10.2313 7.04167 10.0008 7.04167 9.76042C7.04167 9.52006 7.13715 9.28956 7.3071 9.1196C7.47706 8.94965 7.70756 8.85417 7.94792 8.85417ZM7.94792 16.1042H21.8438C22.0841 16.1042 22.3146 16.1996 22.4846 16.3696C22.6545 16.5396 22.75 16.7701 22.75 17.0104C22.75 17.2508 22.6545 17.4813 22.4846 17.6512C22.3146 17.8212 22.0841 17.9167 21.8438 17.9167H7.94792C7.70756 17.9167 7.47706 17.8212 7.3071 17.6512C7.13715 17.4813 7.04167 17.2508 7.04167 17.0104C7.04167 16.7701 7.13715 16.5396 7.3071 16.3696C7.47706 16.1996 7.70756 16.1042 7.94792 16.1042ZM3.41667 9.45833C3.41667 9.7788 3.28936 10.0861 3.06275 10.3128C2.83615 10.5394 2.5288 10.6667 2.20833 10.6667C1.88786 10.6667 1.58052 10.5394 1.35391 10.3128C1.12731 10.0861 1 9.7788 1 9.45833C1 9.13786 1.12731 8.83052 1.35391 8.60391C1.58052 8.37731 1.88786 8.25 2.20833 8.25C2.5288 8.25 2.83615 8.37731 3.06275 8.60391C3.28936 8.83052 3.41667 9.13786 3.41667 9.45833ZM2.20833 3.41667C1.88786 3.41667 1.58052 3.28936 1.35391 3.06275C1.12731 2.83615 1 2.5288 1 2.20833C1 1.88786 1.12731 1.58052 1.35391 1.35391C1.58052 1.12731 1.88786 1 2.20833 1C2.5288 1 2.83615 1.12731 3.06275 1.35391C3.28936 1.58052 3.41667 1.88786 3.41667 2.20833C3.41667 2.5288 3.28936 2.83615 3.06275 3.06275C2.83615 3.28936 2.5288 3.41667 2.20833 3.41667ZM2.20833 17.9167C1.88786 17.9167 1.58052 17.7894 1.35391 17.5628C1.12731 17.3361 1 17.0288 1 16.7083C1 16.3879 1.12731 16.0805 1.35391 15.8539C1.58052 15.6273 1.88786 15.5 2.20833 15.5C2.5288 15.5 2.83615 15.6273 3.06275 15.8539C3.28936 16.0805 3.41667 16.3879 3.41667 16.7083C3.41667 17.0288 3.28936 17.3361 3.06275 17.5628C2.83615 17.7894 2.5288 17.9167 2.20833 17.9167Z" fill="#F0E13D" stroke="#F0E13D"/>
</svg>
