<svg width="25" height="25" viewBox="0 0 25 25" fill="none" xmlns="http://www.w3.org/2000/svg">
<path d="M12.0833 0C18.7533 0 24.1667 5.41333 24.1667 12.0833C24.1667 18.7533 18.7533 24.1667 12.0833 24.1667C5.41333 24.1667 0 18.7533 0 12.0833C0 5.41333 5.41333 0 12.0833 0ZM3.58325 17.5834C5.35649 20.2304 9.10529 22.0834 12.0833 22.0834C15.0614 22.0834 19.31 20.2304 21.0833 17.5834C19.1407 15.772 14.9489 15.0834 12.0833 15.0834C9.21778 15.0834 5.5258 15.772 3.58325 17.5834ZM12.0833 10.875C14.0854 10.875 15.7083 9.25203 15.7083 7.25C15.7083 5.24797 14.0854 3.625 12.0833 3.625C10.0812 3.625 8.45833 5.24797 8.45833 7.25C8.45833 9.25203 10.0812 10.875 12.0833 10.875Z" fill="#F0E13D"/>
</svg>
